<mxfile host="Electron" modified="2024-06-12T09:31:45.594Z" agent="Mozilla/5.0 (Windows NT 10.0; Win64; x64) AppleWebKit/537.36 (KHTML, like Gecko) draw.io/22.1.16 Chrome/120.0.6099.109 Electron/28.1.0 Safari/537.36" etag="7G1Oy0zIJ1PVjMkDklgy" version="22.1.16" type="device">
  <diagram name="Page-1" id="6zD-izsmirur7kcObW2i">
    <mxGraphModel dx="1155" dy="1791" grid="1" gridSize="10" guides="1" tooltips="1" connect="1" arrows="1" fold="1" page="1" pageScale="1" pageWidth="850" pageHeight="1100" math="0" shadow="0">
      <root>
        <mxCell id="0" />
        <mxCell id="1" parent="0" />
        <mxCell id="6St314M1eqmKRrUnTSBx-1" value="" style="rounded=0;whiteSpace=wrap;html=1;fillColor=#007FFF;" parent="1" vertex="1">
          <mxGeometry x="50" y="-160" width="1850" height="780" as="geometry" />
        </mxCell>
        <mxCell id="6St314M1eqmKRrUnTSBx-2" value="CBS" style="text;html=1;strokeColor=none;fillColor=none;align=center;verticalAlign=middle;whiteSpace=wrap;rounded=0;" parent="1" vertex="1">
          <mxGeometry x="40" y="220" width="60" height="30" as="geometry" />
        </mxCell>
        <mxCell id="6St314M1eqmKRrUnTSBx-3" value="" style="line;strokeWidth=2;direction=south;html=1;" parent="1" vertex="1">
          <mxGeometry x="100" y="-160" width="10" height="780" as="geometry" />
        </mxCell>
        <mxCell id="6St314M1eqmKRrUnTSBx-4" value="organize export undertaking" style="rounded=1;whiteSpace=wrap;html=1;fillColor=#FFFF00;" parent="1" vertex="1">
          <mxGeometry x="220" y="205" width="120" height="60" as="geometry" />
        </mxCell>
        <mxCell id="6St314M1eqmKRrUnTSBx-5" value="" style="ellipse;whiteSpace=wrap;html=1;aspect=fixed;fillColor=#00FF00;" parent="1" vertex="1">
          <mxGeometry x="150" y="220" width="30" height="30" as="geometry" />
        </mxCell>
        <mxCell id="6St314M1eqmKRrUnTSBx-6" value="" style="endArrow=classic;html=1;rounded=0;exitX=1;exitY=0.5;exitDx=0;exitDy=0;entryX=0;entryY=0.5;entryDx=0;entryDy=0;" parent="1" source="6St314M1eqmKRrUnTSBx-5" target="6St314M1eqmKRrUnTSBx-4" edge="1">
          <mxGeometry width="50" height="50" relative="1" as="geometry">
            <mxPoint x="410" y="310" as="sourcePoint" />
            <mxPoint x="460" y="260" as="targetPoint" />
          </mxGeometry>
        </mxCell>
        <mxCell id="6St314M1eqmKRrUnTSBx-7" value="payment with imposing fees on the unpaid amount" style="rounded=1;whiteSpace=wrap;html=1;fillColor=#FFFF00;" parent="1" vertex="1">
          <mxGeometry x="1320" y="10" width="120" height="60" as="geometry" />
        </mxCell>
        <mxCell id="6St314M1eqmKRrUnTSBx-8" value="" style="rhombus;whiteSpace=wrap;html=1;fillColor=#FF9914;" parent="1" vertex="1">
          <mxGeometry x="850" y="205" width="60" height="60" as="geometry" />
        </mxCell>
        <mxCell id="6St314M1eqmKRrUnTSBx-11" value="" style="endArrow=classic;html=1;rounded=0;entryX=0.008;entryY=0.591;entryDx=0;entryDy=0;exitX=0.5;exitY=1;exitDx=0;exitDy=0;entryPerimeter=0;" parent="1" source="6St314M1eqmKRrUnTSBx-8" target="6St314M1eqmKRrUnTSBx-9" edge="1">
          <mxGeometry width="50" height="50" relative="1" as="geometry">
            <mxPoint x="810" y="230" as="sourcePoint" />
            <mxPoint x="860" y="180" as="targetPoint" />
            <Array as="points">
              <mxPoint x="880" y="340" />
            </Array>
          </mxGeometry>
        </mxCell>
        <mxCell id="6St314M1eqmKRrUnTSBx-13" value="YES" style="text;html=1;strokeColor=none;fillColor=none;align=center;verticalAlign=middle;whiteSpace=wrap;rounded=0;" parent="1" vertex="1">
          <mxGeometry x="867.5" y="175" width="60" height="30" as="geometry" />
        </mxCell>
        <mxCell id="6St314M1eqmKRrUnTSBx-14" value="NO" style="text;html=1;strokeColor=none;fillColor=none;align=center;verticalAlign=middle;whiteSpace=wrap;rounded=0;" parent="1" vertex="1">
          <mxGeometry x="870" y="270" width="60" height="30" as="geometry" />
        </mxCell>
        <mxCell id="6St314M1eqmKRrUnTSBx-15" value="" style="rhombus;whiteSpace=wrap;html=1;fillColor=#FF9914;" parent="1" vertex="1">
          <mxGeometry x="1500" y="145" width="60" height="60" as="geometry" />
        </mxCell>
        <mxCell id="6St314M1eqmKRrUnTSBx-16" value="" style="endArrow=classic;html=1;rounded=0;entryX=0.5;entryY=0;entryDx=0;entryDy=0;exitX=1;exitY=0.5;exitDx=0;exitDy=0;" parent="1" source="6St314M1eqmKRrUnTSBx-7" target="6St314M1eqmKRrUnTSBx-15" edge="1">
          <mxGeometry width="50" height="50" relative="1" as="geometry">
            <mxPoint x="1030" y="230" as="sourcePoint" />
            <mxPoint x="1080" y="180" as="targetPoint" />
            <Array as="points">
              <mxPoint x="1530" y="40" />
            </Array>
          </mxGeometry>
        </mxCell>
        <mxCell id="6St314M1eqmKRrUnTSBx-17" value="close" style="rounded=1;whiteSpace=wrap;html=1;fillColor=#FFFF00;" parent="1" vertex="1">
          <mxGeometry x="1650" y="145" width="120" height="60" as="geometry" />
        </mxCell>
        <mxCell id="6St314M1eqmKRrUnTSBx-19" value="" style="ellipse;html=1;shape=endState;fillColor=#FF0000;strokeColor=#ff0000;" parent="1" vertex="1">
          <mxGeometry x="1840" y="160" width="30" height="30" as="geometry" />
        </mxCell>
        <mxCell id="6St314M1eqmKRrUnTSBx-20" value="" style="endArrow=classic;html=1;rounded=0;entryX=0;entryY=0.5;entryDx=0;entryDy=0;exitX=1;exitY=0.5;exitDx=0;exitDy=0;" parent="1" source="6St314M1eqmKRrUnTSBx-17" target="6St314M1eqmKRrUnTSBx-19" edge="1">
          <mxGeometry width="50" height="50" relative="1" as="geometry">
            <mxPoint x="1240" y="230" as="sourcePoint" />
            <mxPoint x="1290" y="180" as="targetPoint" />
          </mxGeometry>
        </mxCell>
        <mxCell id="6St314M1eqmKRrUnTSBx-21" value="&lt;h1&gt;&lt;font color=&quot;#ff0000&quot;&gt;Note&lt;/font&gt;&lt;/h1&gt;&lt;div&gt;trhe maturity date calculated starting from the date of clearance (not date of orgqnization), exceding this period impose fees above the undertaking amount.&lt;/div&gt;" style="text;html=1;strokeColor=none;fillColor=none;spacing=5;spacingTop=-20;whiteSpace=wrap;overflow=hidden;rounded=0;" parent="1" vertex="1">
          <mxGeometry x="505" y="440" width="190" height="140" as="geometry" />
        </mxCell>
        <mxCell id="6St314M1eqmKRrUnTSBx-22" value="" style="endArrow=classic;html=1;rounded=0;exitX=1;exitY=0.5;exitDx=0;exitDy=0;entryX=0.5;entryY=1;entryDx=0;entryDy=0;" parent="1" source="6St314M1eqmKRrUnTSBx-9" target="6St314M1eqmKRrUnTSBx-15" edge="1">
          <mxGeometry width="50" height="50" relative="1" as="geometry">
            <mxPoint x="1320" y="240" as="sourcePoint" />
            <mxPoint x="1370" y="190" as="targetPoint" />
            <Array as="points">
              <mxPoint x="1530" y="337" />
            </Array>
          </mxGeometry>
        </mxCell>
        <mxCell id="6St314M1eqmKRrUnTSBx-23" value="" style="swimlane;startSize=0;" parent="1" vertex="1">
          <mxGeometry x="1250" y="-60" width="240" height="440" as="geometry" />
        </mxCell>
        <mxCell id="6St314M1eqmKRrUnTSBx-24" value="iterative task for the case in which pay partially" style="text;html=1;strokeColor=none;fillColor=none;align=center;verticalAlign=middle;whiteSpace=wrap;rounded=0;" parent="6St314M1eqmKRrUnTSBx-23" vertex="1">
          <mxGeometry x="120" y="290" width="100" height="30" as="geometry" />
        </mxCell>
        <mxCell id="nUpmGBi-_h0cZOzjPh_h-24" value="" style="curved=1;endArrow=classic;html=1;rounded=0;" parent="6St314M1eqmKRrUnTSBx-23" target="6St314M1eqmKRrUnTSBx-7" edge="1">
          <mxGeometry width="50" height="50" relative="1" as="geometry">
            <mxPoint x="185" y="90" as="sourcePoint" />
            <mxPoint x="235" y="40" as="targetPoint" />
            <Array as="points">
              <mxPoint x="235" y="90" />
              <mxPoint x="185" y="40" />
            </Array>
          </mxGeometry>
        </mxCell>
        <mxCell id="6St314M1eqmKRrUnTSBx-25" value="Payment event" style="text;html=1;strokeColor=none;fillColor=none;align=center;verticalAlign=middle;whiteSpace=wrap;rounded=0;" parent="1" vertex="1">
          <mxGeometry x="1340" y="-100" width="60" height="30" as="geometry" />
        </mxCell>
        <mxCell id="6St314M1eqmKRrUnTSBx-26" value="" style="swimlane;startSize=0;" parent="1" vertex="1">
          <mxGeometry x="200" y="-20" width="160" height="440" as="geometry" />
        </mxCell>
        <mxCell id="6St314M1eqmKRrUnTSBx-27" value="create event" style="text;html=1;strokeColor=none;fillColor=none;align=center;verticalAlign=middle;whiteSpace=wrap;rounded=0;" parent="1" vertex="1">
          <mxGeometry x="250" y="-50" width="60" height="30" as="geometry" />
        </mxCell>
        <mxCell id="6St314M1eqmKRrUnTSBx-28" value="" style="swimlane;startSize=0;" parent="1" vertex="1">
          <mxGeometry x="450" y="-20" width="230" height="440" as="geometry">
            <mxRectangle x="370" y="-30" width="50" height="40" as="alternateBounds" />
          </mxGeometry>
        </mxCell>
        <mxCell id="6St314M1eqmKRrUnTSBx-29" value="custom clearance registration" style="rounded=1;whiteSpace=wrap;html=1;fillColor=#FFFF00;" parent="6St314M1eqmKRrUnTSBx-28" vertex="1">
          <mxGeometry x="20" y="225" width="120" height="60" as="geometry" />
        </mxCell>
        <mxCell id="6St314M1eqmKRrUnTSBx-30" value="custom clearance registration event" style="text;html=1;strokeColor=none;fillColor=none;align=center;verticalAlign=middle;whiteSpace=wrap;rounded=0;" parent="1" vertex="1">
          <mxGeometry x="505" y="-60" width="109" height="30" as="geometry" />
        </mxCell>
        <mxCell id="6St314M1eqmKRrUnTSBx-32" value="" style="swimlane;startSize=0;" parent="1" vertex="1">
          <mxGeometry x="1610" y="-60" width="200" height="460" as="geometry" />
        </mxCell>
        <mxCell id="6St314M1eqmKRrUnTSBx-33" value="Close event" style="text;html=1;strokeColor=none;fillColor=none;align=center;verticalAlign=middle;whiteSpace=wrap;rounded=0;" parent="1" vertex="1">
          <mxGeometry x="1680" y="-100" width="60" height="30" as="geometry" />
        </mxCell>
        <mxCell id="6St314M1eqmKRrUnTSBx-34" value="" style="endArrow=classic;html=1;rounded=0;exitX=1;exitY=0.5;exitDx=0;exitDy=0;entryX=0;entryY=0.5;entryDx=0;entryDy=0;" parent="1" source="6St314M1eqmKRrUnTSBx-4" target="6St314M1eqmKRrUnTSBx-29" edge="1">
          <mxGeometry width="50" height="50" relative="1" as="geometry">
            <mxPoint x="340" y="235" as="sourcePoint" />
            <mxPoint x="371" y="235" as="targetPoint" />
          </mxGeometry>
        </mxCell>
        <mxCell id="6St314M1eqmKRrUnTSBx-37" value="" style="rhombus;whiteSpace=wrap;html=1;fillColor=#FF9914;" parent="1" vertex="1">
          <mxGeometry x="740" y="205" width="60" height="60" as="geometry" />
        </mxCell>
        <mxCell id="6St314M1eqmKRrUnTSBx-38" value="" style="shape=umlDestroy;whiteSpace=wrap;html=1;strokeWidth=3;targetShapes=umlLifeline;" parent="1" vertex="1">
          <mxGeometry x="760" y="225" width="20" height="20" as="geometry" />
        </mxCell>
        <mxCell id="6St314M1eqmKRrUnTSBx-39" value="is the undertaking temporary" style="text;html=1;strokeColor=none;fillColor=none;align=center;verticalAlign=middle;whiteSpace=wrap;rounded=0;" parent="1" vertex="1">
          <mxGeometry x="740" y="165" width="60" height="30" as="geometry" />
        </mxCell>
        <mxCell id="6St314M1eqmKRrUnTSBx-41" value="" style="endArrow=classic;html=1;rounded=0;exitX=0.5;exitY=1;exitDx=0;exitDy=0;entryX=0.5;entryY=1;entryDx=0;entryDy=0;" parent="1" source="6St314M1eqmKRrUnTSBx-37" target="6St314M1eqmKRrUnTSBx-15" edge="1">
          <mxGeometry width="50" height="50" relative="1" as="geometry">
            <mxPoint x="940" y="230" as="sourcePoint" />
            <mxPoint x="990" y="180" as="targetPoint" />
            <Array as="points">
              <mxPoint x="770" y="460" />
              <mxPoint x="1530" y="460" />
            </Array>
          </mxGeometry>
        </mxCell>
        <mxCell id="6St314M1eqmKRrUnTSBx-42" value="" style="endArrow=classic;html=1;rounded=0;" parent="1" source="6St314M1eqmKRrUnTSBx-29" target="6St314M1eqmKRrUnTSBx-37" edge="1">
          <mxGeometry width="50" height="50" relative="1" as="geometry">
            <mxPoint x="980" y="230" as="sourcePoint" />
            <mxPoint x="1030" y="180" as="targetPoint" />
          </mxGeometry>
        </mxCell>
        <mxCell id="6St314M1eqmKRrUnTSBx-43" value="NO" style="text;html=1;strokeColor=none;fillColor=none;align=center;verticalAlign=middle;whiteSpace=wrap;rounded=0;" parent="1" vertex="1">
          <mxGeometry x="780" y="210" width="60" height="30" as="geometry" />
        </mxCell>
        <mxCell id="6St314M1eqmKRrUnTSBx-44" value="YES" style="text;html=1;strokeColor=none;fillColor=none;align=center;verticalAlign=middle;whiteSpace=wrap;rounded=0;" parent="1" vertex="1">
          <mxGeometry x="730" y="270" width="60" height="30" as="geometry" />
        </mxCell>
        <mxCell id="nUpmGBi-_h0cZOzjPh_h-3" value="" style="endArrow=classic;html=1;rounded=0;exitX=1;exitY=0.5;exitDx=0;exitDy=0;" parent="1" source="6St314M1eqmKRrUnTSBx-37" edge="1">
          <mxGeometry width="50" height="50" relative="1" as="geometry">
            <mxPoint x="800" y="235" as="sourcePoint" />
            <mxPoint x="850" y="235" as="targetPoint" />
          </mxGeometry>
        </mxCell>
        <mxCell id="6St314M1eqmKRrUnTSBx-35" value="" style="shape=umlDestroy;whiteSpace=wrap;html=1;strokeWidth=3;targetShapes=umlLifeline;" parent="1" vertex="1">
          <mxGeometry x="870" y="225" width="20" height="20" as="geometry" />
        </mxCell>
        <mxCell id="nUpmGBi-_h0cZOzjPh_h-6" value="does it exceed the maturity date??" style="text;html=1;strokeColor=none;fillColor=none;align=center;verticalAlign=middle;whiteSpace=wrap;rounded=0;" parent="1" vertex="1">
          <mxGeometry x="820" y="235" width="60" height="100" as="geometry" />
        </mxCell>
        <mxCell id="6St314M1eqmKRrUnTSBx-36" value="" style="shape=umlDestroy;whiteSpace=wrap;html=1;strokeWidth=3;targetShapes=umlLifeline;" parent="1" vertex="1">
          <mxGeometry x="1520" y="165" width="20" height="20" as="geometry" />
        </mxCell>
        <mxCell id="nUpmGBi-_h0cZOzjPh_h-12" value="" style="endArrow=classic;html=1;rounded=0;exitX=1;exitY=0.5;exitDx=0;exitDy=0;" parent="1" source="6St314M1eqmKRrUnTSBx-15" target="6St314M1eqmKRrUnTSBx-17" edge="1">
          <mxGeometry width="50" height="50" relative="1" as="geometry">
            <mxPoint x="1260" y="150" as="sourcePoint" />
            <mxPoint x="1310" y="100" as="targetPoint" />
          </mxGeometry>
        </mxCell>
        <mxCell id="6St314M1eqmKRrUnTSBx-9" value="payment without imposing fees" style="rounded=1;whiteSpace=wrap;html=1;fillColor=#FFFF00;" parent="1" vertex="1">
          <mxGeometry x="1290" y="310" width="130" height="54.38" as="geometry" />
        </mxCell>
        <mxCell id="6St314M1eqmKRrUnTSBx-31" value="" style="curved=1;endArrow=classic;html=1;rounded=0;entryX=0.75;entryY=0;entryDx=0;entryDy=0;exitX=1;exitY=0;exitDx=0;exitDy=0;" parent="1" source="6St314M1eqmKRrUnTSBx-9" target="6St314M1eqmKRrUnTSBx-9" edge="1">
          <mxGeometry width="50" height="50" relative="1" as="geometry">
            <mxPoint x="1330" y="240" as="sourcePoint" />
            <mxPoint x="1380" y="190" as="targetPoint" />
            <Array as="points">
              <mxPoint x="1380" y="240" />
              <mxPoint x="1300" y="270" />
            </Array>
          </mxGeometry>
        </mxCell>
        <mxCell id="nUpmGBi-_h0cZOzjPh_h-17" value="" style="endArrow=classic;html=1;rounded=0;exitX=0.5;exitY=0;exitDx=0;exitDy=0;entryX=0;entryY=0.5;entryDx=0;entryDy=0;" parent="1" source="6St314M1eqmKRrUnTSBx-8" target="6St314M1eqmKRrUnTSBx-7" edge="1">
          <mxGeometry width="50" height="50" relative="1" as="geometry">
            <mxPoint x="1020" y="170" as="sourcePoint" />
            <mxPoint x="995" y="34.99999999999977" as="targetPoint" />
            <Array as="points">
              <mxPoint x="880" y="35" />
            </Array>
          </mxGeometry>
        </mxCell>
        <mxCell id="nUpmGBi-_h0cZOzjPh_h-25" value="iterative task for the case in which pay partially" style="text;html=1;strokeColor=none;fillColor=none;align=center;verticalAlign=middle;whiteSpace=wrap;rounded=0;" parent="1" vertex="1">
          <mxGeometry x="1330" y="-35" width="100" height="30" as="geometry" />
        </mxCell>
      </root>
    </mxGraphModel>
  </diagram>
</mxfile>
